<svg id="Layer_1" version="1.1" viewBox="0 0 512 512" xml:space="preserve" xmlns="http://www.w3.org/2000/svg"><style>.st1{fill:#fff}</style><linearGradient gradientUnits="userSpaceOnUse" id="SVGID_1_" x1="407.132" x2="104.868" y1="4.473" y2="507.527"><stop offset="0" stop-color="#4845a2"/><stop offset=".045" stop-color="#5945a2"/><stop offset=".171" stop-color="#8444a1"/><stop offset=".27" stop-color="#9e44a1"/><stop offset=".328" stop-color="#a844a1"/><stop offset=".391" stop-color="#ab429a"/><stop offset=".479" stop-color="#b43c88"/><stop offset=".49" stop-color="#b53b85"/><stop offset=".558" stop-color="#be3572"/><stop offset=".676" stop-color="#d22749"/><stop offset=".739" stop-color="#df4f3e"/><stop offset=".856" stop-color="#f9a326"/><stop offset="1" stop-color="#f9dd26"/></linearGradient><path d="M391.5 13h-271C61.1 13 13 61.1 13 120.5v270.9C13 450.9 61.1 499 120.5 499h270.9c59.4 0 107.5-48.1 107.5-107.5v-271C499 61.1 450.9 13 391.5 13z" fill="url(#SVGID_1_)"/><circle class="st1" cx="352.4" cy="160" r="21.2"/><path class="st1" d="M333.8 76H178.2C121.8 76 76 121.8 76 178.2v155.6C76 390.2 121.8 436 178.2 436h155.6c56.4 0 102.2-45.9 102.2-102.2V178.2C436 121.8 390.2 76 333.8 76zm69.7 257.8c0 38.4-31.3 69.7-69.7 69.7H178.2c-38.4 0-69.7-31.3-69.7-69.7V178.2c0-38.4 31.3-69.7 69.7-69.7h155.6c38.4 0 69.7 31.3 69.7 69.7v155.6z"/><path class="st1" d="M256 162.3c-51.7 0-93.7 42-93.7 93.7s42 93.7 93.7 93.7 93.7-42 93.7-93.7-42-93.7-93.7-93.7zm0 154.9c-33.7 0-61.2-27.5-61.2-61.2s27.5-61.2 61.2-61.2 61.2 27.5 61.2 61.2-27.5 61.2-61.2 61.2z"/></svg>